GIL11_fast2_ik
nRows=3
nColumns=375

# SIMM Motion File Header:
name GIL11_fast2_ik
datacolumns 375
datarows 3
otherdata 1
range 0.10000000 0.11667000
endheader
time	pelvis_tx	pelvis_ty	pelvis_tz	pelvis_tilt	pelvis_list	pelvis_rotation	hip_flexion_r	hip_adduction_r	hip_rotation_r	knee_angle_r	ankle_angle_r	hip_flexion_l	hip_adduction_l	hip_rotation_l	knee_angle_l	ankle_angle_l	lumbar_extension	lumbar_bending	lumbar_rotation	subtalar_angle_r	mtp_angle_r	subtalar_angle_l	mtp_angle_l	asis_r_px	asis_r_py	asis_r_pz	asis_l_px	asis_l_py	asis_l_pz	midasis_px	midasis_py	midasis_pz	psis_r_px	psis_r_py	psis_r_pz	psis_l_px	psis_l_py	psis_l_pz	hip_r_px	hip_r_py	hip_r_pz	hip_l_px	hip_l_py	hip_l_pz	midhip_px	midhip_py	midhip_pz	epicondLat_r_px	epicondLat_r_py	epicondLat_r_pz	epicondMed_r_px	epicondMed_r_py	epicondMed_r_pz	thighwand_r_px	thighwand_r_py	thighwand_r_pz	upperleg1_r_px	upperleg1_r_py	upperleg1_r_pz	upperleg2_r_px	upperleg2_r_py	upperleg2_r_pz	malleolusLat_r_px	malleolusLat_r_py	malleolusLat_r_pz	malleolusMedv_r_px	malleolusMedv_r_py	malleolusMedv_r_pz	shankwand_r_px	shankwand_r_py	shankwand_r_pz	lowerleg1_r_px	lowerleg1_r_py	lowerleg1_r_pz	knee_r_px	knee_r_py	knee_r_pz	ankle_r_px	ankle_r_py	ankle_r_pz	toe_r_px	toe_r_py	toe_r_pz	epicondLat_l_px	epicondLat_l_py	epicondLat_l_pz	epicondMed_l_px	epicondMed_l_py	epicondMed_l_pz	thighwand_l_px	thighwand_l_py	thighwand_l_pz	upperleg1_l_px	upperleg1_l_py	upperleg1_l_pz	upperleg2_l_px	upperleg2_l_py	upperleg2_l_pz	malleolusLat_l_px	malleolusLat_l_py	malleolusLat_l_pz	malleolusMedv_l_px	malleolusMedv_l_py	malleolusMedv_l_pz	shankwand_l_px	shankwand_l_py	shankwand_l_pz	lowerleg1_l_px	lowerleg1_l_py	lowerleg1_l_pz	knee_l_px	knee_l_py	knee_l_pz	ankle_l_px	ankle_l_py	ankle_l_pz	toe_l_px	toe_l_py	toe_l_pz	subclavicle_r_px	subclavicle_r_py	subclavicle_r_pz	subclavicle_l_px	subclavicle_l_py	subclavicle_l_pz	neck_px	neck_py	neck_pz	sternalnotch_px	sternalnotch_py	sternalnotch_pz	xyphoidprocess_px	xyphoidprocess_py	xyphoidprocess_pz	midhip_tx	midhip_ty	midhip_tz	hip_r_tx	hip_r_ty	hip_r_tz	hip_l_tx	hip_l_ty	hip_l_tz	knee_r_tx	knee_r_ty	knee_r_tz	knee_l_tx	knee_l_ty	knee_l_tz	ankle_r_tx	ankle_r_ty	ankle_r_tz	ankle_l_tx	ankle_l_ty	ankle_l_tz	midasis_tx	midasis_ty	midasis_tz	asis_r_tx	asis_r_ty	asis_r_tz	asis_l_tx	asis_l_ty	asis_l_tz	psis_r_tx	psis_r_ty	psis_r_tz	psis_l_tx	psis_l_ty	psis_l_tz	epicondLat_r_tx	epicondLat_r_ty	epicondLat_r_tz	epicondLat_l_tx	epicondLat_l_ty	epicondLat_l_tz	epicondMed_r_tx	epicondMed_r_ty	epicondMed_r_tz	epicondMed_l_tx	epicondMed_l_ty	epicondMed_l_tz	malleolusLat_r_tx	malleolusLat_r_ty	malleolusLat_r_tz	malleolusLat_l_tx	malleolusLat_l_ty	malleolusLat_l_tz	malleolusMedv_r_tx	malleolusMedv_r_ty	malleolusMedv_r_tz	malleolusMedv_l_tx	malleolusMedv_l_ty	malleolusMedv_l_tz	neck_tx	neck_ty	neck_tz	subclavicle_r_tx	subclavicle_r_ty	subclavicle_r_tz	subclavicle_l_tx	subclavicle_l_ty	subclavicle_l_tz	sternalnotch_tx	sternalnotch_ty	sternalnotch_tz	xyphoidprocess_tx	xyphoidprocess_ty	xyphoidprocess_tz	thighwand_r_tx	thighwand_r_ty	thighwand_r_tz	thighwand_l_tx	thighwand_l_ty	thighwand_l_tz	upperleg1_r_tx	upperleg1_r_ty	upperleg1_r_tz	upperleg1_l_tx	upperleg1_l_ty	upperleg1_l_tz	upperleg2_r_tx	upperleg2_r_ty	upperleg2_r_tz	upperleg2_l_tx	upperleg2_l_ty	upperleg2_l_tz	shankwand_r_tx	shankwand_r_ty	shankwand_r_tz	shankwand_l_tx	shankwand_l_ty	shankwand_l_tz	lowerleg1_r_tx	lowerleg1_r_ty	lowerleg1_r_tz	lowerleg1_l_tx	lowerleg1_l_ty	lowerleg1_l_tz	toe_r_tx	toe_r_ty	toe_r_tz	toe_l_tx	toe_l_ty	toe_l_tz	ground_force_vx	ground_force_vy	ground_force_vz	ground_force_px	ground_force_py	ground_force_pz	ground_force_vx	ground_force_vy	ground_force_vz	ground_force_px	ground_force_py	ground_force_pz	ground_torque_x	ground_torque_y	ground_torque_z	ground_torque_x	ground_torque_y	ground_torque_z	ground_marker_px	ground_marker_py	ground_marker_pz	ground_marker_px	ground_marker_py	ground_marker_pz	ground_marker_px	ground_marker_py	ground_marker_pz	ground_marker_px	ground_marker_py	ground_marker_pz	ground_marker_px	ground_marker_py	ground_marker_pz	ground_marker_px	ground_marker_py	ground_marker_pz	ground_marker_px	ground_marker_py	ground_marker_pz	ground_marker_px	ground_marker_py	ground_marker_pz	ground_marker_px	ground_marker_py	ground_marker_pz	ground_marker_px	ground_marker_py	ground_marker_pz	ground_marker_px	ground_marker_py	ground_marker_pz	ground_marker_px	ground_marker_py	ground_marker_pz	ground_marker_px	ground_marker_py	ground_marker_pz	ground_marker_px	ground_marker_py	ground_marker_pz	ground_marker_px	ground_marker_py	ground_marker_pz	ground_marker_px	ground_marker_py	ground_marker_pz	ground_marker_px	ground_marker_py	ground_marker_pz	ground_marker_px	ground_marker_py	ground_marker_pz	ground_marker_px	ground_marker_py	ground_marker_pz	ground_marker_px	ground_marker_py	ground_marker_pz	ground_marker_px	ground_marker_py	ground_marker_pz	ground_marker_px	ground_marker_py	ground_marker_pz	ground_marker_px	ground_marker_py	ground_marker_pz	ground_marker_px	ground_marker_py	ground_marker_pz	ground_marker_px	ground_marker_py	ground_marker_pz	ground_marker_px	ground_marker_py	ground_marker_pz	ground_marker_px	ground_marker_py	ground_marker_pz	ground_marker_px	ground_marker_py	ground_marker_pz	ground_marker_px	ground_marker_py	ground_marker_pz	ground_marker_px	ground_marker_py	ground_marker_pz	ground_marker_px	ground_marker_py	ground_marker_pz	ground_marker_px	ground_marker_py	ground_marker_pz	ground_marker_px	ground_marker_py	ground_marker_pz	ground_marker_px	ground_marker_py	ground_marker_pz	ground_marker_px	ground_marker_py	ground_marker_pz	ground_marker_px	ground_marker_py	ground_marker_pz	ground_marker_px	ground_marker_py	ground_marker_pz
      0.10000000	      1.27850259	      0.83627531	     -0.26487345	     -4.83037980	     -6.41602981	      3.84658239	     31.05788622	      5.74149719	      3.87029208	    -26.58344564	      2.08442462	     -9.80968143	    -12.80974791	      9.55912271	    -36.06369815	    -30.93261295	     -2.95936544	      5.99457622	     -4.21886382	      0.00000000	      0.00000000	      0.00000000	      0.00000000	      1.33457823	      0.83348071	     -0.15714118	      1.31509498	      0.81214551	     -0.39059707	      1.29128453	      0.83509837	     -0.26573107	      1.14128147	      0.91202808	     -0.23351354	      1.13334919	      0.90338165	     -0.28694770	      1.21472061	      0.79016525	     -0.17767903	      1.20302177	      0.77398321	     -0.32983101	      1.20887119	      0.78207423	     -0.25375502	      1.41348627	      0.44847316	     -0.13637161	      1.39302506	      0.44281913	     -0.25149973	      1.48174346	      0.63580183	     -0.23234204	      1.40929726	      0.65715138	     -0.16733175	      1.43501328	      0.57298104	     -0.16598479	      1.36468374	      0.06345124	     -0.12424983	      1.38607956	      0.06285664	     -0.19654187	      1.36583461	      0.14507262	     -0.06132551	      1.36609993	      0.15161457	     -0.10513782	      1.37878511	      0.44751696	     -0.19222503	      1.37499017	      0.07491185	     -0.17465750	      1.47922682	      0.03385143	     -0.12242700	      1.13631881	      0.39114903	     -0.43595373	      1.12043393	      0.39222056	     -0.31307985	      1.21394556	      0.51339406	     -0.50182440	      1.16177373	      0.57500181	     -0.44574820	      1.14373718	      0.48878371	     -0.44096281	      0.80054451	      0.18378214	     -0.47693813	      0.81078675	      0.16882713	     -0.40862865	      0.95574185	      0.16819244	     -0.41007393	      0.93045500	      0.20095035	     -0.41854174	      1.10434445	      0.40727876	     -0.36834449	      0.81562262	      0.17797258	     -0.42505406	      0.79077298	      0.06918044	     -0.46559673	      1.29971368	      1.29007631	     -0.21797501	      1.30294354	      1.28450748	     -0.32368120	      1.17287250	      1.33301694	     -0.27269195	      1.29820799	      1.28363977	     -0.27019506	      1.34657572	      1.21977497	     -0.26919112	      1.22242200	      0.79580400	     -0.24769800	      1.20820200	      0.77717600	     -0.17950300	      1.19099600	      0.76277300	     -0.32996700	      1.37576100	      0.43680700	     -0.19156400	      1.09240200	      0.39465100	     -0.37984300	      1.37063600	      0.06466200	     -0.20164300	      0.81014100	      0.17093000	     -0.39792000	      1.28985800	      0.84276100	     -0.26895000	      1.29918300	      0.85367600	     -0.15385400	      1.28053300	      0.83184600	     -0.38404700	      1.09807800	      0.90793300	     -0.21856000	      1.09211100	      0.89857500	     -0.27268000	      1.38620900	      0.43993200	     -0.13459800	      1.10093300	      0.40010400	     -0.43695300	      1.35848800	      0.43372500	     -0.24570800	      1.13143100	      0.38597000	     -0.31434300	      1.36281000	      0.06370800	     -0.16242700	      0.80113500	      0.18522200	     -0.43417800	      1.37988300	      0.07086800	     -0.23588200	      0.81720100	      0.17293000	     -0.37347600	      1.17475800	      1.34353600	     -0.27275300	      1.29864000	      1.28428100	     -0.21739800	      1.30273400	      1.28004200	     -0.32332300	      1.29707500	      1.27925300	     -0.27013900	      1.33814900	      1.21001600	     -0.26932100	      1.45525400	      0.62040300	     -0.22089400	      1.17558100	      0.52848600	     -0.50561200	      1.39283600	      0.64033600	     -0.14732900	      1.12547800	      0.57802100	     -0.44025700	      1.41516400	      0.55428600	     -0.15548100	      1.12042100	      0.48973500	     -0.43809200	      1.36735000	      0.13733400	     -0.09128900	      0.96652100	      0.17558700	     -0.39300600	      1.36623500	      0.14660200	     -0.13352000	      0.93772500	      0.20668800	     -0.40080600	      1.47030100	      0.04050100	     -0.17048300	      0.80903600	      0.06330800	     -0.39407100	   -150.98316995	    808.17071010	    -41.36975063	      1.38330139	      0.00000000	     -0.19161023	      0.00000000	      0.00000000	      0.00000000	      1.87926685	      0.00000000	     -0.32922482	      0.00000000	      0.77956128	      0.00000000	      0.00000000	      0.00000000	      0.00000000	      1.22242212	      0.79580426	     -0.24769765	      1.20820212	      0.77717590	     -0.17950349	      1.19099617	      0.76277250	     -0.32996714	      1.37576079	      0.43680692	     -0.19156387	      1.09240222	      0.39465126	     -0.37984324	      1.37063622	      0.06466244	     -0.20164251	      0.81014121	      0.17092954	     -0.39792040	      1.28985834	      0.84276110	     -0.26895049	      1.29918337	      0.85367578	     -0.15385427	      1.28053331	      0.83184642	     -0.38404670	      1.09807825	      0.90793252	     -0.21856041	      1.09211147	      0.89857465	     -0.27268043	      1.38620865	      0.43993175	     -0.13459830	      1.10093260	      0.40010425	     -0.43695277	      1.35848820	      0.43372512	     -0.24570775	      1.13143098	      0.38596952	     -0.31434336	      1.36280990	      0.06370816	     -0.16242723	      0.80113471	      0.18522243	     -0.43417773	      1.37988281	      0.07086799	     -0.23588175	      0.81720066	      0.17293011	     -0.37347621	      1.17475772	      1.34353638	     -0.27275318	      1.29864013	      1.28428113	     -0.21739806	      1.30273378	      1.28004229	     -0.32332322	      1.29707468	      1.27925277	     -0.27013928	      1.33814871	      1.21001565	     -0.26932085	      1.45525420	      0.62040287	     -0.22089438	      1.17558110	      0.52848631	     -0.50561249	      1.39283633	      0.64033598	     -0.14732878	      1.12547791	      0.57802051	     -0.44025666	      1.41516376	      0.55428576	     -0.15548131	      1.12042093	      0.48973459	     -0.43809247	      1.36734962	      0.13733363	     -0.09128904	      0.96652114	      0.17558688	     -0.39300588	      1.36623549	      0.14660244	     -0.13351968	      0.93772471	      0.20668760	     -0.40080550	      1.47030103	      0.04050097	     -0.17048256	      0.80903631	      0.06330796	     -0.39407146
      0.10833000	      1.29247634	      0.83749294	     -0.26189129	     -4.82875531	     -6.75255505	      3.39045089	     30.39776139	      6.29023290	      2.52247456	    -27.18841050	      3.14055223	     -8.28411637	    -13.19815200	      9.86444694	    -39.01124414	    -30.63410351	     -3.01630645	      6.18075180	     -3.45795367	      0.00000000	      0.00000000	      0.00000000	      0.00000000	      1.34775697	      0.83545438	     -0.15373203	      1.33001880	      0.81257991	     -0.38718128	      1.30526534	      0.83632278	     -0.26264682	      1.15495783	      0.91331591	     -0.23204002	      1.14742852	      0.90431390	     -0.28547375	      1.22809414	      0.79189037	     -0.17487127	      1.21753471	      0.77470614	     -0.32699670	      1.22281442	      0.78329825	     -0.25093398	      1.42150698	      0.44728579	     -0.13236552	      1.40396370	      0.44316746	     -0.24803915	      1.49452338	      0.63479355	     -0.22440269	      1.42068728	      0.65633086	     -0.16103893	      1.44532270	      0.57183368	     -0.15999157	      1.36376787	      0.06310005	     -0.12529573	      1.38703944	      0.06267829	     -0.19700717	      1.36511667	      0.14409201	     -0.06156719	      1.36668327	      0.15102832	     -0.10529155	      1.38837474	      0.44734878	     -0.18911863	      1.37565480	      0.07478347	     -0.17530272	      1.47816572	      0.03268296	     -0.12054580	      1.16219823	      0.39032465	     -0.43405774	      1.14490573	      0.39087684	     -0.31137060	      1.23729722	      0.51463533	     -0.49898616	      1.18288248	      0.57479487	     -0.44347201	      1.16708350	      0.48812553	     -0.43893382	      0.82100790	      0.18977417	     -0.47959362	      0.83034467	      0.17402197	     -0.41133357	      0.97524868	      0.16987587	     -0.41166783	      0.95083106	      0.20330623	     -0.42005835	      1.12926936	      0.40493383	     -0.36681547	      0.83553043	      0.18317989	     -0.42764491	      0.80894310	      0.07522731	     -0.46931383	      1.31402576	      1.29122603	     -0.21727276	      1.31670514	      1.28549848	     -0.32298586	      1.18691893	      1.33413469	     -0.27139510	      1.31224676	      1.28471229	     -0.26947464	      1.36059457	      1.22083016	     -0.26862631	      1.23566800	      0.79641600	     -0.24733600	      1.22175200	      0.77882400	     -0.17728000	      1.20560100	      0.76351100	     -0.32777100	      1.38500700	      0.43681600	     -0.18950200	      1.11695900	      0.39229400	     -0.37986600	      1.37186100	      0.06452700	     -0.20143200	      0.83016300	      0.17653600	     -0.39759700	      1.30398600	      0.84392900	     -0.26654900	      1.31249600	      0.85552700	     -0.15156400	      1.29547500	      0.83233200	     -0.38153400	      1.11166600	      0.90921200	     -0.21901000	      1.10588600	      0.89951200	     -0.27315000	      1.39407100	      0.43909700	     -0.13226000	      1.12605800	      0.39811900	     -0.43685100	      1.36783500	      0.43498800	     -0.24575200	      1.15956200	      0.38307300	     -0.31527900	      1.36329300	      0.06357800	     -0.16237200	      0.82207300	      0.19030400	     -0.43427100	      1.38082200	      0.07108100	     -0.23557600	      0.83609400	      0.17882100	     -0.37319400	      1.18936800	      1.34543400	     -0.27151800	      1.31272000	      1.28574100	     -0.21688400	      1.31643300	      1.28128300	     -0.32274900	      1.31100100	      1.28073000	     -0.26934100	      1.35162500	      1.21115300	     -0.26876400	      1.46877600	      0.61887100	     -0.21470100	      1.19821400	      0.52824200	     -0.50451000	      1.40479100	      0.63865200	     -0.14245200	      1.14541100	      0.57620200	     -0.43940400	      1.42488200	      0.55229800	     -0.15147000	      1.14463100	      0.48707500	     -0.43812300	      1.36812600	      0.13654700	     -0.09073800	      0.98661300	      0.17695500	     -0.39040200	      1.36681500	      0.14647000	     -0.13288100	      0.95825900	      0.20876200	     -0.39808800	      1.47045000	      0.04012500	     -0.17003400	      0.82608200	      0.06776100	     -0.39498000	   -139.74604849	    800.73832835	    -45.92404713	      1.38631519	      0.00000000	     -0.19050327	      0.00000000	      0.00000000	      0.00000000	      1.87946997	      0.00000000	     -0.32992825	      0.00000000	      1.10032483	      0.00000000	      0.00000000	      0.00000000	      0.00000000	      1.23566771	      0.79641593	     -0.24733609	      1.22175193	      0.77882445	     -0.17728037	      1.20560074	      0.76351094	     -0.32777104	      1.38500667	      0.43681616	     -0.18950203	      1.11695945	      0.39229423	     -0.37986580	      1.37186134	      0.06452711	     -0.20143189	      0.83016312	      0.17653620	     -0.39759704	      1.30398583	      0.84392941	     -0.26654884	      1.31249642	      0.85552704	     -0.15156408	      1.29547524	      0.83233178	     -0.38153362	      1.11166620	      0.90921181	     -0.21901000	      1.10588574	      0.89951211	     -0.27314991	      1.39407051	      0.43909717	     -0.13226007	      1.12605774	      0.39811870	     -0.43685085	      1.36783457	      0.43498850	     -0.24575156	      1.15956247	      0.38307342	     -0.31527856	      1.36329341	      0.06357796	     -0.16237180	      0.82207316	      0.19030374	     -0.43427140	      1.38082159	      0.07108130	     -0.23557584	      0.83609354	      0.17882106	     -0.37319356	      1.18936849	      1.34543383	     -0.27151805	      1.31272042	      1.28574133	     -0.21688376	      1.31643319	      1.28128254	     -0.32274869	      1.31100070	      1.28073025	     -0.26934126	      1.35162497	      1.21115279	     -0.26876429	      1.46877575	      0.61887085	     -0.21470062	      1.19821393	      0.52824199	     -0.50450957	      1.40479136	      0.63865179	     -0.14245225	      1.14541137	      0.57620168	     -0.43940425	      1.42488194	      0.55229807	     -0.15147014	      1.14463079	      0.48707488	     -0.43812326	      1.36812639	      0.13654722	     -0.09073794	      0.98661268	      0.17695525	     -0.39040211	      1.36681497	      0.14646956	     -0.13288110	      0.95825928	      0.20876218	     -0.39808795	      1.47044992	      0.04012457	     -0.17003386	      0.82608235	      0.06776051	     -0.39497957
      0.11667000	      1.30620969	      0.83904284	     -0.25886244	     -4.80733707	     -7.01120283	      2.96144959	     29.52274663	      6.74755211	      1.38673582	    -27.40950193	      3.97577046	     -6.71659374	    -13.46386128	     10.28990318	    -41.90775846	    -29.35747263	     -3.07292984	      6.28122302	     -2.66897152	      0.00000000	      0.00000000	      0.00000000	      0.00000000	      1.36073097	      0.83762914	     -0.15030849	      1.34466336	      0.81353731	     -0.38375624	      1.31900515	      0.83788532	     -0.25952211	      1.16838980	      0.91484029	     -0.23036708	      1.16124766	      0.90555521	     -0.28380553	      1.24127441	      0.79380330	     -0.17206418	      1.23180641	      0.77582710	     -0.32416993	      1.23654041	      0.78481520	     -0.24811705	      1.42832300	      0.44585784	     -0.12831079	      1.41344824	      0.44306779	     -0.24439728	      1.50635510	      0.63303816	     -0.21683149	      1.43138599	      0.65514309	     -0.15501242	      1.45469075	      0.57026679	     -0.15418969	      1.36311617	      0.06270928	     -0.12604922	      1.38806599	      0.06244761	     -0.19719492	      1.36450823	      0.14311421	     -0.06158253	      1.36724182	      0.15039102	     -0.10519402	      1.39658566	      0.44693894	     -0.18582646	      1.37640495	      0.07458575	     -0.17565626	      1.47727449	      0.03147963	     -0.11867853	      1.18832972	      0.39004102	     -0.43165108	      1.16954401	      0.39015517	     -0.30918250	      1.26077317	      0.51634507	     -0.49574428	      1.20406120	      0.57500628	     -0.44093032	      1.19059051	      0.48793764	     -0.43652915	      0.84240118	      0.19577322	     -0.48180851	      0.85079971	      0.17931501	     -0.41359317	      0.99557247	      0.17192580	     -0.41274382	      0.97198051	      0.20595557	     -0.42108672	      1.15441748	      0.40313809	     -0.36483261	      0.85632806	      0.18847395	     -0.42979102	      0.83013256	      0.08088376	     -0.47262898	      1.32797344	      1.29271883	     -0.21649349	      1.32999355	      1.28683344	     -0.32221258	      1.20053091	      1.33554596	     -0.26988606	      1.32586900	      1.28612714	     -0.26867348	      1.37422208	      1.22224659	     -0.26803131	      1.24883400	      0.79733200	     -0.24686100	      1.23507500	      0.78058700	     -0.17527700	      1.21999600	      0.76457400	     -0.32580600	      1.39291700	      0.43665100	     -0.18735400	      1.14182400	      0.39037600	     -0.37978900	      1.37304300	      0.06448000	     -0.20114700	      0.85102900	      0.18207000	     -0.39645800	      1.31786700	      0.84537400	     -0.26426200	      1.32556200	      0.85750700	     -0.14921600	      1.31017100	      0.83324000	     -0.37930800	      1.12499400	      0.91060100	     -0.21950000	      1.11941600	      0.90064700	     -0.27364800	      1.40068900	      0.43820100	     -0.12989800	      1.15155500	      0.39654400	     -0.43663300	      1.37660700	      0.43554500	     -0.24517500	      1.18332800	      0.38222600	     -0.31382500	      1.36365400	      0.06354000	     -0.16227500	      0.84381100	      0.19511500	     -0.43357600	      1.38088900	      0.07176000	     -0.23543500	      0.85696700	      0.18430400	     -0.37216400	      1.20291000	      1.34796900	     -0.26999200	      1.32671200	      1.28749800	     -0.21626100	      1.33023600	      1.28287400	     -0.32186700	      1.32483300	      1.28249000	     -0.26870100	      1.36521400	      1.21267000	     -0.26795800	      1.48136600	      0.61675500	     -0.20886200	      1.22116600	      0.52844300	     -0.50328600	      1.41528500	      0.63669400	     -0.13811900	      1.16566000	      0.57434000	     -0.43903300	      1.43323600	      0.55040000	     -0.14739700	      1.16762400	      0.48528300	     -0.43738600	      1.36835300	      0.13591500	     -0.09014400	      1.00762500	      0.17862200	     -0.38691700	      1.36640500	      0.14639100	     -0.13218600	      0.97953300	      0.21085000	     -0.39515000	      1.47049300	      0.03982100	     -0.16958500	      0.84577200	      0.07210900	     -0.39584200	   -126.30200283	    787.92906030	    -50.67106227	      1.39027209	      0.00000000	     -0.18910449	      0.00000000	      0.00000000	      0.00000000	      1.87977832	      0.00000000	     -0.33050720	      0.00000000	      1.53681689	      0.00000000	      0.00000000	      0.00000000	      0.00000000	      1.24883413	      0.79733217	     -0.24686061	      1.23507535	      0.78058714	     -0.17527726	      1.21999586	      0.76457447	     -0.32580638	      1.39291656	      0.43665096	     -0.18735370	      1.14182401	      0.39037594	     -0.37978873	      1.37304270	      0.06447955	     -0.20114668	      0.85102898	      0.18206953	     -0.39645821	      1.31786656	      0.84537351	     -0.26426178	      1.32556236	      0.85750741	     -0.14921574	      1.31017077	      0.83323961	     -0.37930781	      1.12499368	      0.91060084	     -0.21949995	      1.11941600	      0.90064728	     -0.27364784	      1.40068901	      0.43820053	     -0.12989773	      1.15155482	      0.39654359	     -0.43663299	      1.37660670	      0.43554500	     -0.24517457	      1.18332839	      0.38222563	     -0.31382477	      1.36365438	      0.06354028	     -0.16227537	      0.84381145	      0.19511548	     -0.43357572	      1.38088930	      0.07176014	     -0.23543465	      0.85696667	      0.18430449	     -0.37216428	      1.20291030	      1.34796929	     -0.26999155	      1.32671249	      1.28749752	     -0.21626121	      1.33023643	      1.28287363	     -0.32186693	      1.32483339	      1.28249013	     -0.26870146	      1.36521387	      1.21267009	     -0.26795805	      1.48136628	      0.61675495	     -0.20886241	      1.22116554	      0.52844268	     -0.50328577	      1.41528547	      0.63669378	     -0.13811900	      1.16565979	      0.57433951	     -0.43903297	      1.43323612	      0.55039966	     -0.14739688	      1.16762376	      0.48528287	     -0.43738648	      1.36835277	      0.13591509	     -0.09014439	      1.00762486	      0.17862152	     -0.38691738	      1.36640453	      0.14639068	     -0.13218585	      0.97953272	      0.21084957	     -0.39514977	      1.47049284	      0.03982143	     -0.16958541	      0.84577179	      0.07210871	     -0.39584246
